<svg width="21" height="37" viewBox="0 0 21 37" fill="none" xmlns="http://www.w3.org/2000/svg">
<path d="M0.770404 0.984945C0.277115 1.49445 0 2.1854 0 2.90584C0 3.62629 0.277115 4.31723 0.770404 4.82674L13.7953 18.2757L0.770404 31.7248C0.291095 32.2372 0.0258753 32.9235 0.0318705 33.6359C0.0378656 34.3483 0.314595 35.0297 0.802457 35.5335C1.29032 36.0372 1.95028 36.3229 2.64019 36.3291C3.3301 36.3353 3.99477 36.0615 4.49104 35.5665L19.3762 20.1966C19.8695 19.6871 20.1466 18.9962 20.1466 18.2757C20.1466 17.5553 19.8695 16.8644 19.3762 16.3548L4.49104 0.984945C3.9976 0.475592 3.32844 0.189453 2.63072 0.189453C1.933 0.189453 1.26384 0.475592 0.770404 0.984945Z" fill="#38546F"/>
</svg>
