<svg width="20" height="37" viewBox="0 0 20 37" fill="none" xmlns="http://www.w3.org/2000/svg">
<path d="M19.2352 0.984945C19.7249 1.49445 20 2.1854 20 2.90584C20 3.62629 19.7249 4.31723 19.2352 4.82674L6.30514 18.2757L19.2352 31.7248C19.711 32.2372 19.9743 32.9235 19.9684 33.6359C19.9624 34.3483 19.6877 35.0297 19.2034 35.5335C18.7191 36.0372 18.0639 36.3229 17.379 36.3291C16.6941 36.3353 16.0343 36.0615 15.5416 35.5665L0.764797 20.1966C0.275098 19.6871 0 18.9962 0 18.2757C0 17.5553 0.275098 16.8644 0.764797 16.3548L15.5416 0.984945C16.0315 0.475592 16.6958 0.189453 17.3884 0.189453C18.0811 0.189453 18.7454 0.475592 19.2352 0.984945Z" fill="#70736E"/>
</svg>
