<svg width="77" height="91" viewBox="0 0 77 91" fill="none" xmlns="http://www.w3.org/2000/svg">
<path d="M54.2868 36.2929C52.8656 34.8719 50.7835 34.1707 48.4325 33.831C48.6757 33.2276 48.9019 32.6211 49.1033 32.0147C50.2746 28.5304 50.8546 24.9571 50.876 21.0862C50.887 17.2266 50.3297 13.6468 49.1747 10.1482C48.568 8.28738 47.7624 6.43643 46.7775 4.64252C46.2678 3.72014 45.6842 2.79015 45.0502 1.88921L45.0162 1.84085C44.2056 0.692091 42.88 0.00425139 41.4703 0C41.4661 0 41.4624 0 41.4583 0C40.0534 0 38.7296 0.679868 37.9266 1.80418L37.8937 1.84989C37.249 2.75402 36.6609 3.67922 36.1437 4.6039C35.1535 6.38417 34.3395 8.22857 33.7266 10.0795C32.5543 13.5747 31.9816 17.1503 31.9764 21.0143C31.977 21.4833 31.9892 21.9494 32.0071 22.4146C31.9555 22.3621 31.905 22.3092 31.8531 22.2569C29.1229 19.5226 26.1931 17.3921 22.9022 15.7473C21.1561 14.8666 19.2779 14.1355 17.3157 13.5736C16.3026 13.2861 15.2334 13.0468 14.144 12.8633L14.105 12.8569V12.8567C12.7194 12.6259 11.2987 13.0821 10.3041 14.0801C9.30908 15.0788 8.85702 16.5025 9.09421 17.8886C9.09492 17.8918 9.09811 17.9102 9.09864 17.9134L9.10395 17.9449C9.2942 19.0448 9.53866 20.1185 9.832 21.1397C10.4013 23.1049 11.1397 24.989 12.0227 26.7345C13.6809 30.0414 15.816 32.9756 18.5525 35.708C21.2984 38.4354 24.232 40.5592 27.5151 42.1972C28.3854 42.6356 29.292 43.0384 30.2242 43.4016C29.9092 44.5503 29.7503 45.7365 29.7503 46.9463C29.7503 48.4194 29.9903 49.8612 30.4521 51.2298C26.3221 50.1398 23.9169 48.3385 23.9169 46.9463C23.9169 46.4603 24.1978 45.9386 24.7519 45.3953C25.4419 44.7186 25.4529 43.6108 24.7762 42.9206C24.0993 42.2301 22.9915 42.2202 22.3015 42.8964C21.0686 44.1052 20.4169 45.506 20.4169 46.9465C20.4169 51.7022 27.485 55.3403 37.077 55.6697C37.1477 55.6721 37.2182 55.6748 37.2889 55.6769C37.6889 55.6886 38.0915 55.6966 38.4998 55.6966C48.8091 55.6966 56.5831 51.935 56.5831 46.9465C56.5831 46.5788 56.5876 46.1997 56.592 45.8135C56.6281 42.6352 56.6736 38.68 54.2868 36.2929ZM37.0469 11.1865C37.5934 9.53711 38.3186 7.89483 39.2006 6.30906C39.6536 5.49917 40.1728 4.68273 40.7433 3.88241L39.3186 2.8665L40.7626 3.85513C40.9828 3.54672 41.2918 3.49996 41.4579 3.49996C41.4588 3.49996 41.4597 3.49996 41.4604 3.49996C41.6264 3.50049 41.9371 3.54779 42.1477 3.84591L42.1803 3.89232C42.7491 4.7008 43.2651 5.5222 43.7117 6.3305C44.59 7.92955 45.3084 9.57874 45.8493 11.2387C46.8864 14.3809 47.386 17.5985 47.3762 21.0711C47.3569 24.5587 46.8368 27.7736 45.7839 30.9051C45.6569 31.2876 45.5171 31.6693 45.3715 32.0503C44.5866 30.7452 43.7005 28.9254 43.1315 26.6844C42.702 24.9925 42.4876 23.1439 42.4761 21.0371C42.4703 19.0151 42.6804 17.1395 43.119 15.3029C43.3434 14.3628 42.7635 13.4186 41.8234 13.1942C40.8819 12.9696 39.9391 13.5501 39.7147 14.49C39.2109 16.5997 38.9694 18.7446 38.9762 21.052C38.9893 23.4507 39.2389 25.5748 39.7391 27.5456C40.3627 30.0012 41.3144 32.0348 42.2039 33.5628C40.6188 33.6634 39.1542 32.8376 38.468 31.4527L38.3627 31.2417C37.6928 29.9036 36.9429 28.6255 36.1077 27.3947C35.6929 25.351 35.4789 23.2057 35.476 21.0144C35.4815 17.538 35.9945 14.3251 37.0469 11.1865ZM53.0927 45.7731C53.0881 46.1731 53.0837 46.5655 53.0837 46.9463C53.0837 49.0869 47.4024 52.1963 38.5004 52.1963C38.19 52.1963 37.8806 52.1917 37.5722 52.1839C37.5068 52.1823 37.4427 52.1794 37.3775 52.1775C37.1224 52.1695 36.8678 52.16 36.6147 52.1468C36.5639 52.1444 36.5134 52.1412 36.4629 52.1385C36.1711 52.1222 35.8808 52.1031 35.5921 52.0797C35.5862 52.0792 35.5802 52.0788 35.5744 52.0783C35.2571 52.0524 34.9416 52.0223 34.6286 51.9879C33.7246 50.4633 33.2503 48.7353 33.2503 46.9463C33.2503 45.588 33.5208 44.271 34.0541 43.0315C34.2484 42.5803 34.2438 42.068 34.0421 41.6202C33.8403 41.1722 33.4593 40.83 32.9923 40.6768C31.6317 40.2304 30.3186 39.6901 29.0837 39.068C26.1336 37.5961 23.4958 35.6849 21.0224 33.2276C18.5589 30.768 16.6385 28.1307 15.1482 25.1594C14.3603 23.6021 13.7027 21.9219 13.195 20.1693C12.9375 19.2731 12.7215 18.324 12.5529 17.3483C12.5522 17.3446 12.5486 17.3255 12.5483 17.3219L12.5439 17.2971C12.4797 16.9207 12.6666 16.6674 12.7837 16.5498C12.9006 16.4323 13.1516 16.2462 13.5273 16.3083C13.5357 16.3098 13.5484 16.3121 13.5569 16.3133C14.5266 16.4766 15.4699 16.6876 16.3563 16.9391C18.1034 17.4396 19.7755 18.09 21.3317 18.8751C24.2855 20.3514 26.9171 22.2667 29.3735 24.7264C31.8347 27.2041 33.7516 29.8478 35.2374 32.8163L35.3333 33.0081C35.4252 33.194 35.526 33.3729 35.6319 33.5479H34.8288C34.7257 33.5479 34.6213 33.5429 34.5186 33.5334C34.2242 33.5061 33.9415 33.4429 33.6793 33.346C32.5318 32.9221 31.4257 32.3936 30.3912 31.7756C28.8933 30.8805 27.4361 29.7211 25.94 28.2347C24.5066 26.804 23.3302 25.3236 22.343 23.7102C21.8385 22.8856 20.7609 22.6261 19.9368 23.1308C19.1124 23.6353 18.8527 24.7123 19.3574 25.5369C20.4909 27.3898 21.8353 29.0823 23.4699 30.7147C25.174 32.4073 26.8505 33.7369 28.596 34.7801C29.8151 35.5083 31.1173 36.1304 32.4668 36.6293C33.0157 36.8317 33.5973 36.9627 34.1948 37.0183C34.4043 37.0379 34.6178 37.0477 34.8288 37.0477H41.3401C41.7125 37.0773 42.0907 37.0801 42.4724 37.0535C42.7027 37.0376 42.9365 37.0293 43.1673 37.0293C45.2342 37.0293 50.075 37.0293 51.8127 38.7668C52.2715 39.2256 52.5672 39.8805 52.7599 40.6459H50.1088C49.1421 40.6459 48.3588 41.4294 48.3588 42.3959C48.3588 43.3624 49.1421 44.1459 50.1088 44.1459H53.0998C53.1046 44.6922 53.0988 45.2396 53.0927 45.7731Z" fill="#797971"/>
<path d="M40.834 44.1466C41.8004 44.1466 42.5839 43.3631 42.5839 42.3966C42.5839 41.4301 41.8004 40.6466 40.834 40.6466C39.8675 40.6466 39.084 41.4301 39.084 42.3966C39.084 43.3631 39.8675 44.1466 40.834 44.1466Z" fill="#797971"/>
<path d="M56.9922 33.2807C56.0516 33.0521 55.1067 33.6295 54.8789 34.5687C54.6507 35.5079 55.2275 36.454 56.1669 36.6819C66.6965 39.237 73.5 43.9529 73.5 48.6967C73.5 52.1095 69.9634 55.5824 63.7969 58.2252C57.0685 61.1087 48.0846 62.6967 38.5001 62.6967C28.9155 62.6967 19.9314 61.1087 13.2032 58.2252C7.03676 55.5824 3.50013 52.1095 3.50013 48.6967C3.50013 44.9461 7.83567 41.102 15.0974 38.4137C16.0038 38.0782 16.4665 37.0715 16.131 36.165C15.7955 35.2586 14.7892 34.7952 13.8824 35.1314C4.93037 38.4452 0 43.2629 0 48.6967C0 53.6478 4.19931 58.1743 11.8244 61.442C13.4137 62.1232 15.1176 62.7359 16.9166 63.2778V78.4467C16.9166 82.3153 19.4815 85.6597 24.1387 87.8635C27.9997 89.6904 33.0999 90.6967 38.4999 90.6967C43.8999 90.6967 49.0001 89.6904 52.8611 87.8635C57.5185 85.6597 60.0831 82.3153 60.0831 78.4467V63.2776C61.8818 62.7357 63.5861 62.123 65.1752 61.4422C72.8006 58.1743 76.9999 53.648 76.9999 48.6969C76.9999 42.0832 69.5202 36.3202 56.9922 33.2807ZM56.583 78.4462C56.5832 84.1299 47.2663 87.1964 38.4999 87.1964C29.7335 87.1964 20.4166 84.1298 20.4166 78.4464V69.1805C21.3135 69.9448 22.3777 70.6429 23.6041 71.2674C23.8585 71.3969 24.1295 71.4581 24.3964 71.4581C25.0336 71.4581 25.6483 71.1086 25.9572 70.5014C26.3956 69.6401 26.0529 68.5865 25.1916 68.1481C23.6106 67.3432 21.8096 66.0959 20.9408 64.3337C26.3 65.5503 32.2898 66.196 38.4997 66.196C44.7133 66.196 50.7063 65.5496 56.0679 64.3316C54.0003 68.5899 46.0463 70.8626 38.4997 70.8626C36.2311 70.8626 34.0062 70.667 31.887 70.2816C30.9347 70.1073 30.0253 70.7393 29.8518 71.69C29.679 72.6409 30.3094 73.552 31.2603 73.7252C33.586 74.1482 36.0211 74.3627 38.4995 74.3627C43.8995 74.3627 48.9998 73.3564 52.8607 71.5294C54.3085 70.8444 55.5538 70.0488 56.5828 69.162V78.4462H56.583Z" fill="#797971"/>
</svg>
