<svg width="40" height="40" viewBox="0 0 40 40" fill="none" xmlns="http://www.w3.org/2000/svg">
<g clip-path="url(#clip0_1_502)">
<path d="M7.8412 0.00244141C3.53004 0.00244141 0.00244141 3.53004 0.00244141 7.8412V32.1687C0.00244141 36.4799 3.53004 40.0075 7.8412 40.0075H32.1687C36.4799 40.0075 40.0075 36.4799 40.0075 32.1687V7.8412C40.0075 3.53004 36.4799 0.00244141 32.1687 0.00244141H7.8412ZM12.3287 9.02868H20.22C21.8588 9.02868 23.1037 9.08864 23.9487 9.21744C24.7937 9.3398 25.5874 9.60208 26.325 10.0012C27.1231 10.4312 27.7226 11.0102 28.1175 11.7274C28.5123 12.449 28.7125 13.2783 28.7125 14.2212C28.7125 15.311 28.4406 16.2796 27.8925 17.13C27.3497 17.9803 26.5965 18.6056 25.6387 19.01V19.1262C27.0169 19.4189 28.1222 20.0076 28.9512 20.9037C29.7815 21.8008 30.1962 23.0084 30.1962 24.525C30.1962 25.635 29.9867 26.614 29.5662 27.4537C29.146 28.2934 28.5832 28.9853 27.8712 29.5387C27.0316 30.1986 26.1099 30.6642 25.1 30.9462C24.0964 31.2272 22.8216 31.3675 21.27 31.3675H12.3288V9.02872L12.3287 9.02868ZM17.91 13.1237V17.8512H18.6162C19.574 17.8512 20.2508 17.8414 20.635 17.8212C21.0192 17.801 21.419 17.6981 21.8287 17.5087C22.2736 17.299 22.5868 17.008 22.755 16.6387C22.9242 16.2651 23.0112 15.8338 23.0112 15.3474C23.0112 14.9846 22.9189 14.615 22.7337 14.2362C22.5496 13.8573 22.2635 13.5804 21.8687 13.4112C21.5004 13.2473 21.065 13.1609 20.5574 13.145C20.0509 13.129 19.2982 13.1237 18.2999 13.1237H17.9099L17.91 13.1237ZM17.91 21.6774V27.27H18.2125C19.6726 27.27 20.6811 27.259 21.2387 27.2387C21.7964 27.2186 22.3708 27.0861 22.9487 26.835C23.4617 26.6147 23.83 26.2919 24.0662 25.8662C24.3014 25.4416 24.4188 24.9599 24.4188 24.4224C24.4188 23.7307 24.282 23.1932 24 22.8037C23.719 22.4099 23.2987 22.1175 22.74 21.9174C22.4016 21.7844 21.9301 21.7123 21.3362 21.6974C20.7424 21.6826 19.9443 21.6774 18.945 21.6774H17.91H17.91Z" fill="#9B9B95" fill-opacity="0.93"/>
</g>
<defs>
<clipPath id="clip0_1_502">
<rect width="40" height="40" fill="white"/>
</clipPath>
</defs>
</svg>
