<svg width="40" height="40" viewBox="0 0 40 40" fill="none" xmlns="http://www.w3.org/2000/svg">
<g clip-path="url(#clip0_1_500)">
<path d="M25.4515 22.0168C26.3527 22.3003 27.2162 22.6921 28.0232 23.1834L27.9715 23.1534C28.8532 23.5451 29.6148 24.0034 30.3098 24.5418L30.2848 24.5234C30.3182 24.6251 30.3382 24.7401 30.3382 24.8618L30.3365 24.9151V24.9134C30.3115 25.6284 30.1532 26.3001 29.8848 26.9118L29.8982 26.8768C29.5132 27.6484 28.8715 28.2434 28.0865 28.5601L28.0632 28.5684C27.2509 28.9931 26.3527 29.2274 25.4365 29.2534H25.4265C23.6777 29.0286 21.9877 28.4732 20.4465 27.6168L20.5182 27.6534C18.8812 26.9119 17.3925 25.879 16.1248 24.6051L16.1232 24.6034C14.7405 23.1638 13.4868 21.6056 12.3765 19.9468L12.2982 19.8234C11.1964 18.3832 10.5572 16.6428 10.4648 14.8318L10.4632 14.8101V14.6034C10.4876 13.8299 10.6693 13.0693 10.9971 12.3682C11.3249 11.667 11.7919 11.04 12.3698 10.5251L12.3748 10.5201C12.7318 10.1644 13.2126 9.96074 13.7165 9.95178H13.7182C13.8865 9.95678 14.0482 9.97011 14.2048 9.99345L14.1832 9.99011C14.3282 10.0118 14.4965 10.0251 14.6698 10.0284H14.6748C14.9175 10.0049 15.1609 10.0648 15.3648 10.1984L15.3615 10.1968C15.5398 10.3934 15.6765 10.6318 15.7582 10.8934L15.7615 10.9068C15.8993 11.2512 16.1837 12.009 16.6148 13.1801C16.8398 13.7034 17.0598 14.3484 17.2365 15.0118L17.2598 15.1168C17.1396 15.6968 16.8265 16.2191 16.3715 16.5984L16.3665 16.6018C15.7721 17.2307 15.4748 17.6307 15.4748 17.8018C15.4812 17.9421 15.5281 18.0776 15.6098 18.1918L15.6082 18.1901C16.2528 19.5227 17.144 20.7211 18.2348 21.7218L18.2432 21.7301C19.3851 22.7588 20.6653 23.6227 22.0465 24.2968L22.1448 24.3401C22.3137 24.4497 22.5087 24.5124 22.7098 24.5218H22.7132C22.9721 24.5218 23.4376 24.104 24.1098 23.2684C24.7821 22.4329 25.2287 22.0151 25.4498 22.0151L25.4515 22.0168ZM20.2065 35.7101H20.2432C22.4316 35.7132 24.5967 35.2597 26.5998 34.3784L26.4982 34.4184C30.4248 32.7618 33.4865 29.7001 35.1032 25.8784L35.1432 25.7734C35.9598 23.9184 36.4348 21.7551 36.4348 19.4818C36.4348 17.2084 35.9598 15.0451 35.1032 13.0868L35.1432 13.1901C33.4865 9.26345 30.4248 6.20178 26.6032 4.58511L26.4982 4.54511C24.6432 3.72845 22.4798 3.25345 20.2065 3.25345C17.9332 3.25345 15.7698 3.72845 13.8115 4.58511L13.9148 4.54511C9.98817 6.20178 6.9265 9.26345 5.30984 13.0851L5.26984 13.1901C4.4105 15.183 3.97081 17.3315 3.97817 19.5018C3.97279 22.9332 5.07069 26.2754 7.10984 29.0351L7.07817 28.9918L5.0365 35.0134L11.2898 33.0234C13.9021 34.7829 16.9819 35.7188 20.1315 35.7101H20.2098H20.2065ZM20.2065 0.000113225H20.2615C22.9748 0.000113225 25.5548 0.570113 27.8865 1.59845L27.7648 1.55011C32.4732 3.54511 36.1448 7.21678 38.0915 11.7984L38.1398 11.9251C39.1198 14.1534 39.6898 16.7518 39.6898 19.4834C39.6898 22.2151 39.1198 24.8134 38.0915 27.1651L38.1398 27.0418C36.1448 31.7501 32.4732 35.4218 27.8915 37.3684L27.7648 37.4168C25.5532 38.3968 22.9732 38.9668 20.2598 38.9668H20.2032H20.2065H20.1182C16.6865 38.9668 13.4648 38.0651 10.6782 36.4868L10.7732 36.5368L-0.00183105 40.0001L3.51317 29.5351C1.67836 26.5169 0.712855 23.0506 0.723169 19.5184C0.723169 16.7751 1.29317 14.1651 2.3215 11.8001L2.27317 11.9251C4.26817 7.21678 7.93984 3.54511 12.5215 1.59845L12.6482 1.55011C15.0154 0.518944 17.5711 -0.00888844 20.1532 0.000113225H20.2082H20.2048H20.2065Z" fill="#9B9B95"/>
</g>
<defs>
<clipPath id="clip0_1_500">
<rect width="40" height="40" fill="white"/>
</clipPath>
</defs>
</svg>
