<svg width="51" height="64" viewBox="0 0 51 64" fill="none" xmlns="http://www.w3.org/2000/svg">
<path d="M50.9254 56.4712L42.7953 36.2567C42.5882 35.7418 42.015 35.497 41.5149 35.7104C41.0149 35.9239 40.7773 36.5142 40.9846 37.0291L48.3344 55.3036L41.6303 53.3029C41.1902 53.1715 40.7202 53.372 40.4993 53.7855L37.1323 60.0823L29.246 40.4736C38.3482 38.6658 45.245 30.4008 45.245 20.5067C45.2452 9.29353 36.3875 0.170898 25.5 0.170898C14.6124 0.170898 5.75467 9.29353 5.75467 20.5067C5.75467 25.0485 7.20814 29.247 9.6609 32.6357L0.0745902 56.4712C-0.0695285 56.8297 -0.00145436 57.2415 0.249806 57.5305C0.500936 57.8196 0.890958 57.9348 1.25276 57.8268L9.16204 55.4664L13.1341 62.8955C13.3071 63.2188 13.6368 63.4179 13.9923 63.4179C14.0103 63.4179 14.0285 63.4173 14.0467 63.4164C14.4228 63.3949 14.7537 63.1533 14.8979 62.7948L22.494 43.9078C22.7011 43.3928 22.4637 42.8024 21.9636 42.5892C21.4636 42.3759 20.8904 42.6204 20.6833 43.1354L13.8674 60.0823L10.5007 53.7855C10.2796 53.372 9.80933 53.1715 9.36953 53.3029L2.66559 55.3036L11.0797 34.3824C14.6857 38.3548 19.8157 40.8423 25.5 40.8423C26.0868 40.8423 26.6672 40.8142 27.241 40.7624L36.1022 62.7948C36.2463 63.1533 36.5773 63.3949 36.9533 63.4163C36.9716 63.4173 36.9896 63.4179 37.0078 63.4179C37.3633 63.4179 37.693 63.2188 37.8658 62.8955L41.8381 55.4664L49.7473 57.8268C50.1094 57.9349 50.499 57.8196 50.7503 57.5305C51.0015 57.2415 51.0695 56.8297 50.9254 56.4712ZM7.71458 20.5067C7.71458 10.4065 15.6931 2.18942 25.5 2.18942C35.3068 2.18942 43.2853 10.4065 43.2853 20.5067C43.2853 30.6068 35.3068 38.8238 25.5 38.8238C15.6931 38.8238 7.71458 30.6068 7.71458 20.5067Z" fill="#797971"/>
<path d="M36.8229 16.7177C36.7101 16.36 36.4133 16.0965 36.053 16.0342L29.459 14.8945L26.369 8.78796C26.2002 8.45437 25.8653 8.24512 25.5 8.24512C25.1348 8.24512 24.7998 8.45437 24.6309 8.78796L21.5408 14.8945L14.9469 16.0342C14.5867 16.0964 14.2899 16.3598 14.177 16.7177C14.0641 17.0755 14.1538 17.4681 14.4097 17.7366L19.0939 22.6504L18.1087 29.4614C18.0549 29.8335 18.2065 30.2054 18.502 30.4266C18.7973 30.6476 19.1879 30.6811 19.5148 30.5136L25.5 27.4438L31.485 30.5136C31.6234 30.5845 31.7728 30.6195 31.9218 30.6195C32.1252 30.6195 32.3274 30.5543 32.4979 30.4268C32.7934 30.2055 32.945 29.8336 32.8912 29.4615L31.9061 22.6505L36.5903 17.7366C36.8461 17.4681 36.9358 17.0755 36.8229 16.7177ZM30.1656 21.5949C29.9503 21.8209 29.8503 22.1377 29.8956 22.4507L30.6757 27.8433L25.9369 25.4129C25.7992 25.3424 25.6497 25.307 25.5 25.307C25.3504 25.307 25.2006 25.3423 25.0632 25.4129L20.3244 27.8433L21.1044 22.4507C21.1497 22.1377 21.0498 21.8207 20.8345 21.5949L17.1257 17.7043L22.3465 16.8019C22.6496 16.7495 22.9113 16.5538 23.0533 16.273L25.5 11.4381L27.9466 16.2732C28.0887 16.5539 28.3503 16.7497 28.6535 16.802L33.8744 17.7044L30.1656 21.5949Z" fill="#797971"/>
<path d="M40.3447 21.525C39.8081 21.4511 39.3155 21.8403 39.2445 22.393C38.3355 29.4587 32.4266 34.7872 25.5001 34.7872C17.8546 34.7872 11.6345 28.3812 11.6345 20.507C11.6345 12.6327 17.8546 6.22677 25.5001 6.22677C32.4268 6.22677 38.3355 11.5551 39.2445 18.621C39.3155 19.1737 39.809 19.5631 40.3447 19.489C40.881 19.4158 41.2585 18.9085 41.1873 18.3559C40.1499 10.2905 33.4058 4.20825 25.5001 4.20825C16.7739 4.20825 9.67456 11.5197 9.67456 20.507C9.67456 29.4943 16.7739 36.8056 25.5001 36.8056C33.4058 36.8056 40.1499 30.7234 41.1874 22.6579C41.2585 22.1055 40.8812 21.5982 40.3447 21.525Z" fill="#797971"/>
</svg>
