<svg width="34" height="71" viewBox="0 0 34 71" fill="none" xmlns="http://www.w3.org/2000/svg">
<path d="M33.8498 13.0773C33.4481 11.7649 32.3489 10.9168 31.0491 10.9168H23.0455C22.6928 10.9168 22.3829 10.6776 22.2739 10.3216L19.8007 2.23986C19.399 0.927332 18.2996 0.0793457 17 0.0793457C15.7004 0.0793457 14.601 0.927332 14.1993 2.23986L11.7261 10.3218C11.6171 10.6777 11.307 10.917 10.9545 10.917H2.95088C1.6511 10.917 0.551876 11.7649 0.150192 13.0775C-0.251492 14.39 0.168398 15.762 1.21997 16.5732L7.69499 21.5681C7.98018 21.7881 8.09867 22.1752 7.98971 22.531L5.51645 30.6129C5.11477 31.9253 5.53466 33.2975 6.58624 34.1086C7.63767 34.9196 8.99648 34.9196 10.0481 34.1086L15.9332 29.5689V68.8697C15.9332 69.4952 16.4108 70.0024 17 70.0024C17.5892 70.0024 18.0668 69.4952 18.0668 68.8697V29.5689L23.9519 34.1088C24.4777 34.5144 25.0802 34.7171 25.6829 34.7171C26.2854 34.7171 26.8882 34.5143 27.4138 34.1088C28.4652 33.2976 28.8851 31.9254 28.4835 30.6131L26.0103 22.5311C25.9013 22.1752 26.0198 21.7881 26.305 21.5681L32.78 16.5732C33.8316 15.762 34.2515 14.3899 33.8498 13.0773ZM31.526 14.7404L25.051 19.7353C24.0157 20.534 23.5858 21.9388 23.9812 23.231L26.4545 31.3129C26.6235 31.8652 26.2716 32.1896 26.1598 32.2758C26.0478 32.362 25.6486 32.617 25.2061 32.2758L18.7311 27.2811C17.6955 26.4822 16.3043 26.4825 15.2692 27.2811L8.79422 32.276C8.35171 32.6174 7.95244 32.3622 7.8405 32.276C7.7287 32.1897 7.3768 31.8652 7.54578 31.313L10.0189 23.231C10.4143 21.9387 9.98447 20.5339 8.94911 19.7353L2.47396 14.7405C2.03159 14.3992 2.13656 13.9172 2.17924 13.7775C2.22205 13.6379 2.40397 13.1823 2.95074 13.1823H10.9544C12.2341 13.1823 13.3597 12.3141 13.7551 11.0218L16.2284 2.93985C16.3975 2.38756 16.8617 2.34467 17 2.34467C17.1383 2.34467 17.6025 2.38756 17.7715 2.93985L20.2448 11.0216C20.6402 12.3139 21.7657 13.1821 23.0455 13.1821H31.0491C31.596 13.1821 31.778 13.6378 31.8206 13.7773C31.8634 13.917 31.9684 14.3991 31.526 14.7404Z" fill="#797971"/>
<path d="M18.0032 11.9952C17.8029 11.4068 17.1911 11.1024 16.6373 11.3152C16.0831 11.5278 15.7963 12.1772 15.9968 12.7654C16.3074 13.6777 16.765 14.5117 17.3568 15.2444C17.5678 15.5056 17.8665 15.6397 18.167 15.6397C18.4128 15.6397 18.6599 15.55 18.861 15.3668C19.3082 14.9595 19.3599 14.2444 18.9762 13.7696C18.5531 13.2457 18.2258 12.6488 18.0032 11.9952Z" fill="#797971"/>
<path d="M22.1764 15.9846C20.5072 17.3632 19.46 19.4344 19.3034 21.6673C19.2372 22.6127 19.33 23.5561 19.5791 24.4716C19.7141 24.9676 20.1404 25.29 20.6035 25.29C20.7015 25.29 20.8014 25.2755 20.9002 25.2451C21.4662 25.0715 21.7923 24.4435 21.6289 23.8424C21.4504 23.1866 21.3838 22.5113 21.4312 21.8352C21.5431 20.2395 22.2922 18.7587 23.4864 17.7724C23.9515 17.3884 24.0352 16.6768 23.6735 16.1829C23.3119 15.6894 22.6415 15.6004 22.1764 15.9846Z" fill="#797971"/>
</svg>
