<svg width="63" height="64" viewBox="0 0 63 64" fill="none" xmlns="http://www.w3.org/2000/svg">
<g clip-path="url(#clip0_1_541)">
<path d="M31.4019 2.61423C47.6347 2.61423 60.8412 15.9139 60.8412 32.2612C60.8412 48.6085 47.6347 61.9083 31.4019 61.9083C15.169 61.9083 1.96268 48.6086 1.96268 32.2612C1.96268 15.9138 15.169 2.61423 31.4019 2.61423ZM31.4019 0.637695C14.0588 0.637695 0 14.796 0 32.2612C0 49.7264 14.0588 63.8847 31.4019 63.8847C48.7449 63.8847 62.8037 49.7264 62.8037 32.2612C62.8037 14.796 48.7448 0.637695 31.4019 0.637695Z" fill="#797971"/>
<path d="M47.5015 49.6248L30.4207 32.4233V8.16138H32.3832V31.605L48.8892 48.2273L47.5015 49.6248Z" fill="#797971"/>
</g>
<defs>
<clipPath id="clip0_1_541">
<rect width="62.8037" height="63.247" fill="white" transform="translate(0 0.637695)"/>
</clipPath>
</defs>
</svg>
