<svg width="63" height="64" viewBox="0 0 63 64" fill="none" xmlns="http://www.w3.org/2000/svg">
<path d="M62.5553 35.8204L61.4342 19.4051C61.3615 18.3418 60.8798 17.3715 60.0781 16.6729C59.2763 15.9743 58.2516 15.6322 57.1929 15.7098C55.1118 15.862 53.4979 17.6221 53.5185 19.7166L53.6508 33.0987L47.8767 40.5228C46.9549 41.7079 45.4255 42.1838 44.0383 41.8269L50.3207 33.6364C51.4235 32.1988 51.2402 30.1161 49.9037 28.895C49.1902 28.243 48.2675 27.9208 47.3045 27.9885C46.3419 28.056 45.4724 28.5035 44.8559 29.2488L35.3651 40.7234C33.7998 42.6159 32.951 45.0126 32.9747 47.4723L33.1221 62.7105C33.128 63.3179 33.6196 63.8072 34.2247 63.8081L50.0278 63.8297C50.0282 63.8297 50.0288 63.8297 50.0293 63.8297C50.3384 63.8297 50.6334 63.6996 50.8424 63.471C51.0519 63.242 51.156 62.9353 51.129 62.6254L50.484 55.1665L60.9749 41.1694C62.1249 39.6354 62.686 37.7356 62.5553 35.8204ZM59.2106 39.8368L48.4655 54.1733C48.3018 54.3917 48.2242 54.6632 48.2478 54.9355L48.8251 61.6115L35.3196 61.593L35.1828 47.4509C35.164 45.5151 35.8321 43.6289 37.064 42.1396L46.5548 30.6648C46.7822 30.3898 47.1031 30.2247 47.4582 30.1999C47.8134 30.1745 48.1542 30.2937 48.4175 30.5345C48.9108 30.9851 48.9784 31.7537 48.5713 32.2841L41.442 41.5786C41.2551 41.8223 41.1775 42.1329 41.2277 42.4363C41.2779 42.7397 41.4514 43.0085 41.7067 43.1785C44.2581 44.8773 47.733 44.3101 49.6171 41.8873L55.6288 34.1575C55.7828 33.9598 55.8651 33.7154 55.8627 33.4644L55.7266 19.6949C55.7173 18.7676 56.432 17.9883 57.3533 17.9208C57.8241 17.8868 58.2759 18.038 58.6308 18.3471C58.9859 18.6564 59.199 19.086 59.2313 19.5569L60.3524 35.9722C60.4467 37.3558 60.0415 38.7283 59.2106 39.8368Z" fill="#797971"/>
<path d="M17.7181 29.249C17.1016 28.5037 16.232 28.0561 15.2695 27.9887C14.3075 27.9213 13.3839 28.2432 12.6706 28.8952C11.3338 30.1165 11.1505 32.1992 12.2532 33.6368L18.5358 41.8272C17.1494 42.1837 15.6191 41.7084 14.6973 40.5232L8.92313 33.099L9.05547 19.717C9.07608 17.6225 7.46226 15.8624 5.38121 15.7101C4.32398 15.6331 3.2981 15.9745 2.49597 16.6732C1.69429 17.3718 1.21263 18.3422 1.13991 19.4055L0.0186456 35.8206C-0.11222 37.7359 0.449076 39.6356 1.59875 41.1697L12.0898 55.1669L11.4448 62.6258C11.4178 62.9355 11.5219 63.2423 11.7314 63.4714C11.9406 63.7 12.2356 63.83 12.5445 63.83C12.545 63.83 12.5456 63.83 12.546 63.83L28.3492 63.8085C28.9542 63.8076 29.4458 63.3183 29.4517 62.7109L29.5992 47.4727C29.6229 45.0131 28.7741 42.6164 27.2089 40.7239L17.7181 29.249ZM27.2544 61.5932L13.749 61.6117L14.3263 54.9357C14.3499 54.6634 14.2724 54.3919 14.1086 54.1735L3.36331 39.837C2.53248 38.7287 2.12722 37.3561 2.22158 35.9724L3.34285 19.5571C3.37509 19.0862 3.58824 18.6566 3.9433 18.3473C4.26524 18.0668 4.66844 17.9162 5.09033 17.9162C5.13361 17.9162 5.17703 17.9179 5.22075 17.921C6.14212 17.9884 6.85651 18.7676 6.84738 19.6951L6.71121 33.4646C6.70871 33.7156 6.79115 33.96 6.94512 34.1577L12.9569 41.8875C14.8412 44.3103 18.3159 44.8772 20.8674 43.1789C21.1227 43.0089 21.2962 42.7401 21.3464 42.4367C21.3966 42.1333 21.3189 41.8225 21.1321 41.5788L14.0026 32.2844C13.5957 31.7539 13.6633 30.9854 14.1567 30.5347C14.4201 30.294 14.7604 30.1756 15.1158 30.2001C15.471 30.2249 15.7919 30.3902 16.0193 30.6652L25.5101 42.1399C26.742 43.6294 27.4101 45.5156 27.3913 47.4513L27.2544 61.5932Z" fill="#797971"/>
<path d="M52.9147 13.055C52.9147 9.72368 51.6224 6.59172 49.2759 4.23605C46.9295 1.88025 43.8099 0.583008 40.4914 0.583008C37.1731 0.583008 34.0534 1.88025 31.7067 4.23591L31.2869 4.65753L30.8669 4.23591C28.5206 1.88025 25.4009 0.583008 22.0824 0.583008C18.7641 0.583008 15.6444 1.88025 13.2978 4.23591C8.45411 9.09871 8.45411 17.011 13.2979 21.874L30.5061 39.1496C30.7218 39.366 31.0044 39.4743 31.2869 39.4743C31.5694 39.4743 31.852 39.3661 32.0677 39.1496L49.2759 21.8738C51.6224 19.5183 52.9147 16.3863 52.9147 13.055ZM31.2871 36.7986L14.8593 20.3064C10.8764 16.3079 10.8764 9.80186 14.8593 5.80329C16.7886 3.86645 19.354 2.79975 22.0824 2.79975C24.811 2.79975 27.3762 3.86645 29.3057 5.80344L30.5063 7.00876C30.7133 7.21669 30.994 7.33344 31.2869 7.33344C31.5799 7.33344 31.8606 7.21654 32.0677 7.00876L33.2682 5.80344C35.1976 3.86645 37.7629 2.79975 40.4914 2.79975C43.22 2.79975 45.7852 3.86645 47.7145 5.80344C49.6439 7.74043 50.7066 10.3157 50.7066 13.055C50.7066 15.7943 49.6439 18.3696 47.7145 20.3066L31.2871 36.7986Z" fill="#797971"/>
</svg>
